# xmcd
# 
# Track frame offsets:
#     150
#     24387
#     40722
#     54320
#     72641
#     90902
#     113245
#     138722
#     160831
#     174794
#     186472
#     199484
#     213694
#     234793
#     255819
#     272460
#     299115
# 
# Disc length: 4220
# 
# Revision: 0
# Processed by: cddbd v1.5.2PL0 Copyright (c) Steve Scherf et al.
# Submitted via: fre:ac v1.0.17
# 
DISCID=f3107a11
DTITLE=Various Artist - WoW Worship Green D2
DYEAR=2001
DGENRE=Praise and Worship
TTITLE0=Tommy Walker - The Doxology
TTITLE1=Twila Paris - He Is Exalted
TTITLE2=Carl Tuttle - Hosanna
TTITLE3=Terry Butler - Cry Of My Heart
TTITLE4=Craig Musseau - Good To Me
TTITLE5=Geoff Bullock - The Power Of Your Love
TTITLE6=Dave Billington - Awesome In This Place
TTITLE7=Sondra Corbett Wood - I Worship You Almighty God
TTITLE8=Karen Lafferty - Seek Ye First
TTITLE9=Rick Founds - Jesus, Draw Me Close
TTITLE10=Michael W Smith and Deborah Smith - Great Is The Lord
TTITLE11=Walt Hannah - Think About His Love
TTITLE12=Kelly Carpenter - Draw Me Close
TTITLE13=J.Butler - This Is Love
TTITLE14=Don Moen - Worthy You Are Worthy
TTITLE15=Joseph Sabolick - Come Just As You Are
TTITLE16=Debbye Graafsama - To Him Who Sits On The Throne
EXTD=YEAR: 2001
EXTT0=
EXTT1=
EXTT2=
EXTT3=
EXTT4=
EXTT5=
EXTT6=
EXTT7=
EXTT8=
EXTT9=
EXTT10=
EXTT11=
EXTT12=
EXTT13=
EXTT14=
EXTT15=
EXTT16=
PLAYORDER=
